<svg xmlns="http://www.w3.org/2000/svg" width="387.967" height="540.138" viewBox="0 0 387.967 540.138">
  <defs>
    <style>
      .cls-1 {
        opacity: 0.15;
      }

      .cls-2 {
        fill: #865cb0;
      }

      .cls-3 {
        fill: #291d36;
      }

      .cls-4 {
        fill: #7f53ac;
      }

      .cls-12, .cls-14, .cls-4 {
        opacity: 0.2;
      }

      .cls-12, .cls-19, .cls-20, .cls-5, .cls-7 {
        fill: #fff;
      }

      .cls-5, .cls-6 {
        opacity: 0.1;
      }

      .cls-8 {
        fill: #ffa8a7;
      }

      .cls-9 {
        fill: #f5f5f5;
      }

      .cls-10 {
        fill: #ba68c8;
      }

      .cls-11 {
        opacity: 0.3;
      }

      .cls-13 {
        fill: #263238;
      }

      .cls-15 {
        fill: #e0e0e0;
      }

      .cls-16 {
        opacity: 0.4;
      }

      .cls-17 {
        fill: #f28f8f;
      }

      .cls-18 {
        fill: #455a64;
      }

      .cls-19 {
        opacity: 0.5;
      }

      .cls-20 {
        opacity: 0.7;
      }

      .cls-21 {
        fill: #37474f;
      }
    </style>
  </defs>
  <g id="Group_27" data-name="Group 27" transform="translate(-766.106 -487.495)">
    <g id="Shadows_1_" class="cls-1" transform="translate(766.106 769.395)">
      <path id="Path_5" data-name="Path 5" class="cls-2" d="M175.735,342.774c57.552-33.226,150.545-33.226,207.728,0,50.518,29.359,56.134,74.826,17.06,107.935,31.516-1.943,64.2,4.061,88.271,18.051,42.261,24.56,42.028,64.372-.505,88.913-42.533,24.56-111.257,24.56-153.518,0-33.614-19.527-40.318-48.731-20.246-72.2-48.44,7.014-101.756-.447-139.489-22.364C117.891,429.88,118.183,376,175.735,342.774Z" transform="translate(-132.373 -317.855)"/>
    </g>
    <g id="Character" transform="translate(774 487.495)">
      <g id="Group_24" data-name="Group 24">
        <g id="Group_23" data-name="Group 23">
          <g id="Group_22" data-name="Group 22">
            <g id="Group_2" data-name="Group 2" transform="translate(0 135.089)">
              <path id="Path_6" data-name="Path 6" class="cls-3" d="M366.478,305.369c19.625,13.621,41.736,23.064,58.116,41.328,30.622,34.139,31.321,89.049,7.286,128.084s-68.763,62.488-114.288,67.85c-47.779,5.635-97.909-7.578-135.39-37.714-37.481-30.156-61.322-77.255-61.3-125.364s24.657-96,64.955-122.274c36.762-23.977,89.573-30.816,126.452-3.381,18.653,13.873,31.069,34.333,49.683,48.245C363.467,303.231,364.963,304.32,366.478,305.369Z" transform="translate(-120.9 -236.121)"/>
              <path id="Path_7" data-name="Path 7" class="cls-4" d="M366.478,305.369c19.625,13.621,41.736,23.064,58.116,41.328,30.622,34.139,31.321,89.049,7.286,128.084s-68.763,62.488-114.288,67.85c-47.779,5.635-97.909-7.578-135.39-37.714-37.481-30.156-61.322-77.255-61.3-125.364s24.657-96,64.955-122.274c36.762-23.977,89.573-30.816,126.452-3.381,18.653,13.873,31.069,34.333,49.683,48.245C363.467,303.231,364.963,304.32,366.478,305.369Z" transform="translate(-120.9 -236.121)"/>
              <path id="Path_8" data-name="Path 8" class="cls-5" d="M366.478,305.369c19.625,13.621,41.736,23.064,58.116,41.328,30.622,34.139,31.321,89.049,7.286,128.084s-68.763,62.488-114.288,67.85c-47.779,5.635-97.909-7.578-135.39-37.714-37.481-30.156-61.322-77.255-61.3-125.364s24.657-96,64.955-122.274c36.762-23.977,89.573-30.816,126.452-3.381,18.653,13.873,31.069,34.333,49.683,48.245C363.467,303.231,364.963,304.32,366.478,305.369Z" transform="translate(-120.9 -236.121)"/>
              <path id="Path_9" data-name="Path 9" class="cls-6" d="M325.817,482.853c-.039-.33-.1-.641-.136-.971-3.128-21.859-20.169-38.88-41.853-43.038A163.737,163.737,0,0,1,230.2,418.306c-11.716-7.092-22.792-15.777-35.926-19.605-12.124-3.536-27.241-2.992-38.724,2.254,11.056-11.6,29.981-16.71,45.117-11.464-10.473-16.03-19.7-33.3-23.3-52.112-3.614-18.808-1.049-39.463,10.3-54.89a55.213,55.213,0,0,1,85.24-4.566c11.231,12.28,17.565,29.573,24.948,44.515,5.3,10.725,10.784,21.684,19.508,29.864,13.174,12.338,32.138,16.768,45.8,28.562,15.486,13.368,22.17,34.741,22.248,55.221.039,13.815-2.545,27.4-6,40.823-15.7,15.272-35.11,26.775-56.037,34.255C326.536,502.244,327.1,492.276,325.817,482.853Z" transform="translate(-88.224 -213.629)"/>
              <g id="Group_1" data-name="Group 1" transform="translate(25.622 0.524)">
                <path id="Path_10" data-name="Path 10" class="cls-7" d="M134.113,372.693A140.367,140.367,0,0,1,253.88,236.39a99.5,99.5,0,0,1,13.543,2.273,136.891,136.891,0,0,0-129.6,134.127c-.874,44.767,21.023,90.409,58.582,122.061,29.437,24.812,68.53,41.27,111.51,47.2-.913.117-1.826.253-2.759.35q-5.8.67-11.639.991c-38.18-7.4-72.766-23.141-99.522-45.7C155.6,465.278,133.219,418.568,134.113,372.693Z" transform="translate(-134.087 -236.39)"/>
              </g>
            </g>
            <g id="Group_21" data-name="Group 21" transform="translate(89.815)">
              <g id="Group_7" data-name="Group 7" transform="translate(31.799 241.546)">
                <g id="Group_4" data-name="Group 4" transform="translate(121.594 145.707)">
                  <path id="Path_11" data-name="Path 11" class="cls-8" d="M284.744,368c-2,7.966-2.39,22.345-2.39,22.345l-5.3-2a13.659,13.659,0,0,0-14.728,3.361l-.253.272a5.327,5.327,0,0,1-7.364.33h0a5.41,5.41,0,0,1-1.826-3.847L252.16,365.9Z" transform="translate(-240.327 -365.9)"/>
                  <path id="Path_12" data-name="Path 12" class="cls-9" d="M270.027,431.272c11,11.755,31.244,22.053,45.952,12.008l-1.652,3.75c-14.709,10.026-34.955-.253-45.952-12.008s-3.867-19.916-13.757-30.35a35.986,35.986,0,0,1-8.549-12.707c.447-1.127.855-2.584,1.38-4.275a45.212,45.212,0,0,0,8.821,13.232C266.161,411.375,259.03,419.517,270.027,431.272Z" transform="translate(-246.07 -345.352)"/>
                  <path id="Path_13" data-name="Path 13" class="cls-10" d="M252.191,386.849c2.409-3.808,3.225-6.431,3.459-8.025a4.626,4.626,0,0,1,2.176-3.264l.117,3.789a5.265,5.265,0,0,0,1.826,3.847,5.327,5.327,0,0,0,7.364-.33l.253-.272a13.731,13.731,0,0,1,14.728-3.361l5.382,2.021a4.121,4.121,0,0,1,2.681,3.964c-.35,15.428,6.859,35.907,14.417,47.177,7.772,3.225,14.476,13.815,11.056,21.568l-.35.777c-14.709,10.026-34.955-.253-45.952-12.008s-3.867-19.916-13.757-30.35a44.819,44.819,0,0,1-8.821-13.232A48.619,48.619,0,0,1,252.191,386.849Z" transform="translate(-245.41 -356.79)"/>
                  <path id="Path_14" data-name="Path 14" class="cls-11" d="M252.191,386.849c2.409-3.808,3.225-6.431,3.459-8.025a4.626,4.626,0,0,1,2.176-3.264l.117,3.789a5.265,5.265,0,0,0,1.826,3.847,5.327,5.327,0,0,0,7.364-.33l.253-.272a13.731,13.731,0,0,1,14.728-3.361l5.382,2.021a4.121,4.121,0,0,1,2.681,3.964c-.35,15.428,6.859,35.907,14.417,47.177,7.772,3.225,14.476,13.815,11.056,21.568l-.35.777c-14.709,10.026-34.955-.253-45.952-12.008s-3.867-19.916-13.757-30.35a44.819,44.819,0,0,1-8.821-13.232A48.619,48.619,0,0,1,252.191,386.849Z" transform="translate(-245.41 -356.79)"/>
                  <path id="Path_15" data-name="Path 15" class="cls-12" d="M252.191,386.849c2.409-3.808,3.225-6.431,3.459-8.025a4.626,4.626,0,0,1,2.176-3.264l.117,3.789a5.265,5.265,0,0,0,1.826,3.847,5.327,5.327,0,0,0,7.364-.33l.253-.272a13.731,13.731,0,0,1,14.728-3.361l5.382,2.021a4.121,4.121,0,0,1,2.681,3.964c-.35,15.428,6.859,35.907,14.417,47.177,7.772,3.225,14.476,13.815,11.056,21.568l-.35.777c-14.709,10.026-34.955-.253-45.952-12.008s-3.867-19.916-13.757-30.35a44.819,44.819,0,0,1-8.821-13.232A48.619,48.619,0,0,1,252.191,386.849Z" transform="translate(-245.41 -356.79)"/>
                  <g id="Group_3" data-name="Group 3" transform="translate(22.9 37.874)">
                    <path id="Path_16" data-name="Path 16" class="cls-7" d="M261.945,395.78a1.874,1.874,0,0,1-1.729-3.323c8.452-4.372,15.719-2.914,21.121.039.33,1.224.68,2.429,1.049,3.633C276.149,392.943,269.834,391.777,261.945,395.78Z" transform="translate(-256.536 -381.328)"/>
                    <path id="Path_17" data-name="Path 17" class="cls-7" d="M260.545,391.489a1.874,1.874,0,0,1-1.729-3.323,22.528,22.528,0,0,1,21.976.175c.214,1.263.486,2.526.758,3.789C275.157,388.73,268.687,387.389,260.545,391.489Z" transform="translate(-257.856 -385.392)"/>
                    <path id="Path_18" data-name="Path 18" class="cls-7" d="M263.475,400.052a1.874,1.874,0,0,1-1.729-3.323c8.219-4.255,15.311-2.992,20.674-.214.466,1.3.952,2.584,1.477,3.847C277.659,397.2,271.345,396.068,263.475,400.052Z" transform="translate(-255.093 -377.303)"/>
                    <path id="Path_19" data-name="Path 19" class="cls-7" d="M293.4,406.08c7.772,3.225,14.476,13.815,11.056,21.568l-.35.777c-14.495,9.89-34.353.039-45.447-11.5C267.928,398.774,287.281,403.3,293.4,406.08Z" transform="translate(-257.097 -368.351)"/>
                    <path id="Path_20" data-name="Path 20" class="cls-7" d="M265.149,404.221a1.874,1.874,0,0,1-1.729-3.323c8.238-4.255,15.35-2.992,20.713-.194.661,1.438,1.341,2.817,2.021,4.139C279.742,401.462,273.291,400.1,265.149,404.221Z" transform="translate(-253.522 -373.37)"/>
                  </g>
                </g>
                <g id="Group_6" data-name="Group 6" transform="translate(158.453 192.65)">
                  <path id="Path_21" data-name="Path 21" class="cls-8" d="M295.72,390.06c1.38,8.1,6.82,21.412,6.82,21.412l-5.654.311a13.7,13.7,0,0,0-12.124,9.016l-.136.35a5.355,5.355,0,0,1-6.606,3.284h0a5.384,5.384,0,0,1-3.225-2.779L265.04,401.31Z" transform="translate(-265.04 -390.06)"/>
                  <path id="Path_22" data-name="Path 22" class="cls-9" d="M307.178,448.708c14.806,6.334,37.481,7.558,46.9-7.558v4.1c-9.4,15.117-32.079,13.893-46.9,7.558-14.806-6.334-11.561-16.671-24.832-22.209a35.947,35.947,0,0,1-12.96-8.18c-.058-1.2-.253-2.72-.466-4.469a44.935,44.935,0,0,0,13.426,8.549C295.6,432.056,292.353,442.393,307.178,448.708Z" transform="translate(-261.381 -363.759)"/>
                  <path id="Path_23" data-name="Path 23" class="cls-10" d="M269.155,420.445c.68-4.45.35-7.189-.078-8.744a4.637,4.637,0,0,1,.68-3.867l1.632,3.42a5.263,5.263,0,0,0,3.225,2.779,5.338,5.338,0,0,0,6.606-3.284l.136-.35a13.7,13.7,0,0,1,12.124-9.016l5.751-.311a4.1,4.1,0,0,1,4.041,2.545c5.907,14.262,20.771,30.1,32.235,37.345,8.413-.194,18.828,6.781,18.828,15.272v.836c-9.4,15.117-32.079,13.893-46.9,7.558-14.806-6.334-11.561-16.652-24.832-22.209a45.459,45.459,0,0,1-13.426-8.549A46.472,46.472,0,0,1,269.155,420.445Z" transform="translate(-261.616 -379.68)"/>
                  <path id="Path_24" data-name="Path 24" class="cls-11" d="M269.155,420.445c.68-4.45.35-7.189-.078-8.744a4.637,4.637,0,0,1,.68-3.867l1.632,3.42a5.263,5.263,0,0,0,3.225,2.779,5.338,5.338,0,0,0,6.606-3.284l.136-.35a13.7,13.7,0,0,1,12.124-9.016l5.751-.311a4.1,4.1,0,0,1,4.041,2.545c5.907,14.262,20.771,30.1,32.235,37.345,8.413-.194,18.828,6.781,18.828,15.272v.836c-9.4,15.117-32.079,13.893-46.9,7.558-14.806-6.334-11.561-16.652-24.832-22.209a45.459,45.459,0,0,1-13.426-8.549A46.472,46.472,0,0,1,269.155,420.445Z" transform="translate(-261.616 -379.68)"/>
                  <path id="Path_25" data-name="Path 25" class="cls-12" d="M269.155,420.445c.68-4.45.35-7.189-.078-8.744a4.637,4.637,0,0,1,.68-3.867l1.632,3.42a5.263,5.263,0,0,0,3.225,2.779,5.338,5.338,0,0,0,6.606-3.284l.136-.35a13.7,13.7,0,0,1,12.124-9.016l5.751-.311a4.1,4.1,0,0,1,4.041,2.545c5.907,14.262,20.771,30.1,32.235,37.345,8.413-.194,18.828,6.781,18.828,15.272v.836c-9.4,15.117-32.079,13.893-46.9,7.558-14.806-6.334-11.561-16.652-24.832-22.209a45.459,45.459,0,0,1-13.426-8.549A46.472,46.472,0,0,1,269.155,420.445Z" transform="translate(-261.616 -379.68)"/>
                  <g id="Group_5" data-name="Group 5" transform="translate(27.052 34.76)">
                    <path id="Path_26" data-name="Path 26" class="cls-7" d="M285.28,422.366a1.881,1.881,0,0,1-2.934-2.351c5.984-7.422,13.193-9.016,19.333-8.491.8.972,1.593,1.943,2.429,2.9C297.152,414.031,290.9,415.527,285.28,422.366Z" transform="translate(-276.133 -404.665)"/>
                    <path id="Path_27" data-name="Path 27" class="cls-7" d="M282.28,419.1a1.881,1.881,0,0,1-2.934-2.351,22.555,22.555,0,0,1,20.188-8.7c.7,1.069,1.457,2.118,2.215,3.148C294.521,410.69,288.051,412.069,282.28,419.1Z" transform="translate(-278.963 -407.95)"/>
                    <path id="Path_28" data-name="Path 28" class="cls-7" d="M288.41,425.656a1.881,1.881,0,0,1-2.934-2.351c5.81-7.209,12.8-8.918,18.828-8.53.952,1.01,1.924,1.982,2.9,2.934C300.243,417.32,294.006,418.816,288.41,425.656Z" transform="translate(-273.182 -401.562)"/>
                    <path id="Path_29" data-name="Path 29" class="cls-7" d="M316.357,421.6c8.413-.194,18.828,6.781,18.828,15.272v.836c-9.268,14.9-31.4,13.912-46.224,7.83C290.087,425.2,309.634,421.524,316.357,421.6Z" transform="translate(-269.535 -395.079)"/>
                    <path id="Path_30" data-name="Path 30" class="cls-7" d="M291.62,428.8a1.881,1.881,0,0,1-2.934-2.351c5.829-7.228,12.843-8.938,18.886-8.53,1.185,1.049,2.351,2.04,3.517,2.973C303.861,420.365,297.41,421.745,291.62,428.8Z" transform="translate(-270.155 -398.603)"/>
                  </g>
                </g>
                <path id="Path_31" data-name="Path 31" class="cls-13" d="M285.615,290.91l74.126,41.309a36.755,36.755,0,0,1,18.245,38.8l-14.378,77.488L375.4,485.989c-10.181,13.659-33.556,14.339-33.556,14.339-13.038-26.153-22.6-37.248-30-59.165-7.4-21.9-12.338-37.034-12.338-37.034L237.933,387.3a72.98,72.98,0,0,1-53.355-62.08c-1.049-9.307-1.088-15.661-1.088-15.661Z" transform="translate(-183.49 -290.91)"/>
                <path id="Path_32" data-name="Path 32" class="cls-14" d="M239.787,301.63a35,35,0,0,1-8.3,22.6l52.306,32.74a37.569,37.569,0,0,1,16.01,20.888L318.324,438.4l-16.69-67.423a30.564,30.564,0,0,0-13.6-18.653l-48.3-29.864C244.664,310.121,239.787,301.63,239.787,301.63Z" transform="translate(-138.225 -280.801)"/>
              </g>
              <g id="Group_20" data-name="Group 20">
                <g id="Group_8" data-name="Group 8" transform="translate(74.72 235.212)">
                  <path id="Path_33" data-name="Path 33" class="cls-15" d="M205.619,326.224a2.716,2.716,0,0,0,.1.971.147.147,0,0,0,.019.078,2.809,2.809,0,0,0,.389.758c.019.019.019.058.039.078a3.978,3.978,0,0,0,.68.738c.019.019.019.039.039.039a8.148,8.148,0,0,0,.991.719l54.249,31.535a9.387,9.387,0,0,0,1.554.68c.194.058.389.117.6.175.253.078.525.136.8.194.311.058.641.117.971.175a.976.976,0,0,1,.233.039c.447.039.874.078,1.321.078h.214a9.564,9.564,0,0,0,1.3-.078c.058,0,.136-.019.194-.019.427-.058.855-.117,1.263-.214l.233-.058c.369-.1.738-.214,1.088-.33.058-.019.136-.039.194-.058a7.615,7.615,0,0,0,1.2-.563l89.515-51.684a5.828,5.828,0,0,0,1.01-.719,3.477,3.477,0,0,1,.253-.272,2.917,2.917,0,0,0,.466-.525c.078-.117.117-.233.175-.33a3.063,3.063,0,0,0,.253-.505,2.44,2.44,0,0,0,.058-.369,2.277,2.277,0,0,0,.078-.505v3.167a4.529,4.529,0,0,1-.078.505,2.44,2.44,0,0,1-.058.369,4.08,4.08,0,0,1-.253.505,1.776,1.776,0,0,1-.175.33,5.652,5.652,0,0,1-.466.525,3.467,3.467,0,0,1-.253.272,7.106,7.106,0,0,1-1.01.719l-89.515,51.684a7.626,7.626,0,0,1-1.2.563c-.058.019-.136.039-.194.058a10.066,10.066,0,0,1-1.088.33l-.233.058a9.02,9.02,0,0,1-1.263.214c-.058,0-.136.019-.194.019-.427.039-.874.078-1.3.078H267.6a9.852,9.852,0,0,1-1.321-.078.976.976,0,0,1-.233-.039,8.481,8.481,0,0,1-.971-.175c-.272-.058-.525-.117-.8-.194-.194-.058-.408-.117-.6-.175a9.387,9.387,0,0,1-1.554-.68l-54.249-31.535a5.009,5.009,0,0,1-.991-.719c-.019-.019-.019-.039-.039-.039a4.787,4.787,0,0,1-.68-.738c-.019-.019-.019-.058-.039-.078a4.668,4.668,0,0,1-.389-.758.147.147,0,0,0-.019-.078,3.018,3.018,0,0,1-.078-.719h-.058V326.2Z" transform="translate(-205.58 -270.11)"/>
                  <path id="Path_34" data-name="Path 34" class="cls-14" d="M205.619,326.224a2.716,2.716,0,0,0,.1.971.147.147,0,0,0,.019.078,2.809,2.809,0,0,0,.389.758c.019.019.019.058.039.078a3.978,3.978,0,0,0,.68.738c.019.019.019.039.039.039a8.148,8.148,0,0,0,.991.719l54.249,31.535a9.387,9.387,0,0,0,1.554.68c.194.058.389.117.6.175.253.078.525.136.8.194.311.058.641.117.971.175a.976.976,0,0,1,.233.039c.447.039.874.078,1.321.078h.214a9.564,9.564,0,0,0,1.3-.078c.058,0,.136-.019.194-.019.427-.058.855-.117,1.263-.214l.233-.058c.369-.1.738-.214,1.088-.33.058-.019.136-.039.194-.058a7.615,7.615,0,0,0,1.2-.563l89.515-51.684a5.828,5.828,0,0,0,1.01-.719,3.477,3.477,0,0,1,.253-.272,2.917,2.917,0,0,0,.466-.525c.078-.117.117-.233.175-.33a3.063,3.063,0,0,0,.253-.505,2.44,2.44,0,0,0,.058-.369,2.277,2.277,0,0,0,.078-.505v3.167a4.529,4.529,0,0,1-.078.505,2.44,2.44,0,0,1-.058.369,4.08,4.08,0,0,1-.253.505,1.776,1.776,0,0,1-.175.33,5.652,5.652,0,0,1-.466.525,3.467,3.467,0,0,1-.253.272,7.106,7.106,0,0,1-1.01.719l-89.515,51.684a7.626,7.626,0,0,1-1.2.563c-.058.019-.136.039-.194.058a10.066,10.066,0,0,1-1.088.33l-.233.058a9.02,9.02,0,0,1-1.263.214c-.058,0-.136.019-.194.019-.427.039-.874.078-1.3.078H267.6a9.852,9.852,0,0,1-1.321-.078.976.976,0,0,1-.233-.039,8.481,8.481,0,0,1-.971-.175c-.272-.058-.525-.117-.8-.194-.194-.058-.408-.117-.6-.175a9.387,9.387,0,0,1-1.554-.68l-54.249-31.535a5.009,5.009,0,0,1-.991-.719c-.019-.019-.019-.039-.039-.039a4.787,4.787,0,0,1-.68-.738c-.019-.019-.019-.058-.039-.078a4.668,4.668,0,0,1-.389-.758.147.147,0,0,0-.019-.078,3.018,3.018,0,0,1-.078-.719h-.058V326.2Z" transform="translate(-205.58 -270.11)"/>
                  <path id="Path_35" data-name="Path 35" class="cls-15" d="M364.95,324.645a4.08,4.08,0,0,1-.253.505,1.776,1.776,0,0,1-.175.33,5.652,5.652,0,0,1-.466.525,3.467,3.467,0,0,1-.253.272,7.106,7.106,0,0,1-1.01.719l-89.515,51.684a7.626,7.626,0,0,1-1.2.563c-.058.019-.136.039-.194.058a10.066,10.066,0,0,1-1.088.33l-.233.058a9.02,9.02,0,0,1-1.263.214c-.058,0-.136.019-.194.019-.427.039-.874.078-1.3.078h-.214a9.852,9.852,0,0,1-1.321-.078.976.976,0,0,1-.233-.039,8.481,8.481,0,0,1-.971-.175c-.272-.058-.525-.117-.8-.194-.194-.058-.408-.117-.6-.175a9.387,9.387,0,0,1-1.554-.68l-54.249-31.535a5.009,5.009,0,0,1-.991-.719c-.019-.019-.019-.039-.039-.039a4.787,4.787,0,0,1-.68-.738c-.019-.019-.019-.058-.039-.078a4.668,4.668,0,0,1-.389-.758.147.147,0,0,0-.019-.078,2.805,2.805,0,0,1-.1-.971,4.079,4.079,0,0,1,2.293-3.07l89.515-51.684a12.227,12.227,0,0,1,11.134,0l54.249,31.535a3.918,3.918,0,0,1,2.293,3.225,4.53,4.53,0,0,1-.078.505A2.334,2.334,0,0,1,364.95,324.645Z" transform="translate(-205.564 -287.65)"/>
                  <path id="Path_36" data-name="Path 36" class="cls-15" d="M342.342,314.944l-86.95,50.208a2.047,2.047,0,0,1-.35.155l-.194.058a4.616,4.616,0,0,1-.68.194,4.764,4.764,0,0,1-.486.1l-.33.039c-.233.019-.486.039-.855.039h-.078a7.912,7.912,0,0,1-.894-.058,5.717,5.717,0,0,1-.563-.1c-.136-.019-.7-.194-.7-.194a3.29,3.29,0,0,1-.6-.253L221.68,348.869l89.826-51.859Z" transform="translate(-190.397 -278.823)"/>
                  <path id="Path_37" data-name="Path 37" class="cls-13" d="M237.5,332.39h0Z" transform="translate(-175.479 -245.459)"/>
                  <path id="Path_38" data-name="Path 38" class="cls-15" d="M254.807,299.308l16.36,9.618a1.65,1.65,0,0,1-.019,2.856l-24.463,14.126a2.711,2.711,0,0,1-2.74-.019l-16.36-9.618a1.65,1.65,0,0,1,.019-2.856l24.463-14.126A2.806,2.806,0,0,1,254.807,299.308Z" transform="translate(-185.596 -277.002)"/>
                  <path id="Path_39" data-name="Path 39" class="cls-16" d="M342.342,314.944l-86.95,50.208a2.047,2.047,0,0,1-.35.155l-.194.058a4.616,4.616,0,0,1-.68.194,4.764,4.764,0,0,1-.486.1l-.33.039c-.233.019-.486.039-.855.039h-.078a7.912,7.912,0,0,1-.894-.058,5.717,5.717,0,0,1-.563-.1c-.136-.019-.7-.194-.7-.194a3.29,3.29,0,0,1-.6-.253L221.68,348.869l89.826-51.859Z" transform="translate(-190.397 -278.823)"/>
                  <path id="Path_40" data-name="Path 40" class="cls-16" d="M254.807,299.308l16.36,9.618a1.65,1.65,0,0,1-.019,2.856l-24.463,14.126a2.711,2.711,0,0,1-2.74-.019l-16.36-9.618a1.65,1.65,0,0,1,.019-2.856l24.463-14.126A2.806,2.806,0,0,1,254.807,299.308Z" transform="translate(-185.596 -277.002)"/>
                </g>
                <g id="Group_10" data-name="Group 10" transform="translate(137.35 203.642)">
                  <path id="Path_41" data-name="Path 41" class="cls-15" d="M237.846,390.8l9.268-58.912a10.888,10.888,0,0,1,5.285-7.714l90.117-52.4a2.683,2.683,0,0,1,2.39-.155v-.019l2.137,1.069-.719.272a2.577,2.577,0,0,1,.233,1.593l-9.268,58.912A10.888,10.888,0,0,1,332,341.152l-90.117,52.4a2.437,2.437,0,0,1-.583.233l.078.874-2.079-1.03h.039A2.678,2.678,0,0,1,237.846,390.8Z" transform="translate(-237.813 -271.403)"/>
                  <path id="Path_42" data-name="Path 42" class="cls-11" d="M237.846,390.8l9.268-58.912a10.888,10.888,0,0,1,5.285-7.714l90.117-52.4a2.683,2.683,0,0,1,2.39-.155v-.019l2.137,1.069-.719.272a2.577,2.577,0,0,1,.233,1.593l-9.268,58.912A10.888,10.888,0,0,1,332,341.152l-90.117,52.4a2.437,2.437,0,0,1-.583.233l.078.874-2.079-1.03h.039A2.678,2.678,0,0,1,237.846,390.8Z" transform="translate(-237.813 -271.403)"/>
                  <path id="Path_43" data-name="Path 43" class="cls-15" d="M253.33,324.635l90.117-52.4a2.726,2.726,0,0,1,4.061,2.779l-9.268,58.912a10.888,10.888,0,0,1-5.285,7.714l-90.117,52.4a2.726,2.726,0,0,1-4.061-2.779l9.268-58.912A10.888,10.888,0,0,1,253.33,324.635Z" transform="translate(-236.937 -270.973)"/>
                  <g id="Group_9" data-name="Group 9" transform="translate(51.062 54.028)">
                    <path id="Path_44" data-name="Path 44" class="cls-7" d="M273.1,300.377c-4.372,2.526-8.355,8.277-8.938,12.882s2.448,6.3,6.82,3.789c4.352-2.507,8.355-8.277,8.938-12.882S277.455,297.851,273.1,300.377Z" transform="translate(-264.093 -299.209)"/>
                  </g>
                </g>
                <g id="Group_13" data-name="Group 13" transform="translate(108.373 101.297)">
                  <g id="Group_11" data-name="Group 11" transform="translate(35.829 38.921)">
                    <path id="Path_45" data-name="Path 45" class="cls-17" d="M241.34,267.866,265.764,287.7l16.108-26.134L261.606,238.76C243.788,246.649,241.34,267.866,241.34,267.866Z" transform="translate(-241.34 -238.76)"/>
                  </g>
                  <g id="Group_12" data-name="Group 12">
                    <path id="Path_46" data-name="Path 46" class="cls-18" d="M222.9,219.275c19.2-2.176,20.965,2.1,33.42,13.834,12.435,11.736,25.026,24.948,25.026,24.948-19.2,9.385-21.334,32.215-21.334,32.215-10.453-8.1-19.294-14.495-19.294-14.495Z" transform="translate(-222.9 -218.729)"/>
                    <path id="Path_47" data-name="Path 47" class="cls-19" d="M222.9,219.275c19.2-2.176,20.965,2.1,33.42,13.834,12.435,11.736,25.026,24.948,25.026,24.948-19.2,9.385-21.334,32.215-21.334,32.215-10.453-8.1-19.294-14.495-19.294-14.495Z" transform="translate(-222.9 -218.729)"/>
                  </g>
                </g>
                <g id="Group_14" data-name="Group 14" transform="translate(24.584 101.843)">
                  <path id="Path_48" data-name="Path 48" class="cls-18" d="M193.462,234.263c27.3-12.8,47.779-14.3,70.1-15.253,33.42,21.509,20.907,39.424,20.324,68.142-.563,28.718-6.82,46.069,13.077,75.933C253.171,398.059,197.872,387,184.64,378.59,176.13,299.1,178.617,240.4,193.462,234.263Z" transform="translate(-179.777 -219.01)"/>
                  <path id="Path_49" data-name="Path 49" class="cls-20" d="M193.462,234.263c27.3-12.8,47.779-14.3,70.1-15.253,33.42,21.509,20.907,39.424,20.324,68.142-.563,28.718-6.82,46.069,13.077,75.933C253.171,398.059,197.872,387,184.64,378.59,176.13,299.1,178.617,240.4,193.462,234.263Z" transform="translate(-179.777 -219.01)"/>
                </g>
                <g id="Group_18" data-name="Group 18" transform="translate(44.798)">
                  <path id="Path_50" data-name="Path 50" class="cls-21" d="M266.871,224.953a23.325,23.325,0,0,0,2.468-31.38,12.72,12.72,0,0,0,5.343-6.548,6.79,6.79,0,0,0-9.909-7.83,9.539,9.539,0,0,0-5.207-10.551,8.981,8.981,0,0,0-10.823,3.5,6.105,6.105,0,0,0-4.9-5.4,12.442,12.442,0,0,0-7.636,1.477c-2.37,1.166-4.527,2.7-6.917,3.808-4.042,1.885-8.53,2.487-12.882,3.381-4.372.894-8.821,2.137-12.222,5.032-3.4,2.876-5.946,8.918-3.3,13.485a7.334,7.334,0,0,0-5.615-2.1,7.1,7.1,0,0,0-5.091,2.992c2.973,1.341,5.887,2.837,8.86,4.2-2.934-.894-6.82,1.613-7.986,4.45s-.816,6.043-.33,9.074a119.794,119.794,0,0,0,10.531,33.226c2.623,5.421,6.14,11.075,11.852,13Z" transform="translate(-190.18 -166.595)"/>
                  <path id="Path_51" data-name="Path 51" class="cls-8" d="M266.065,182.13a28.863,28.863,0,0,1-19.139,8.064c-6.723.078-13.251-2.137-19.741-3.944a15.079,15.079,0,0,1-4.469,8.238,17.138,17.138,0,0,1-9.19,4,58.662,58.662,0,0,1-.078,18.342,3.467,3.467,0,0,1-2.332,2.817c-2.2.641-3.633-1.613-4.7-3.42a14.778,14.778,0,0,0-4.741-5.285,7.389,7.389,0,0,0-6.859-.7,7.2,7.2,0,0,0-3.614,4.411,13.31,13.31,0,0,0-.291,5.81,17.488,17.488,0,0,0,3.769,8.88,12.011,12.011,0,0,0,8.452,4.352,8.739,8.739,0,0,0,8.122-4l.136.583a22.931,22.931,0,0,0,.894,2.837,24.218,24.218,0,0,0,17.74,15.175c4.119.855,8.685,1.69,13.349,2.39,2.293.35,4.586.68,6.878.952a16.621,16.621,0,0,0,18.342-13.582C271.739,220.349,272.788,199.695,266.065,182.13Z" transform="translate(-189.665 -151.946)"/>
                  <g id="Group_15" data-name="Group 15" transform="translate(22.636 81.188)">
                    <path id="Path_52" data-name="Path 52" class="cls-8" d="M201.83,208.38v30.894a34.093,34.093,0,0,0,24.851,13.776c3.148.194,6.587-.175,8.918-2.293a7.24,7.24,0,0,0-.894-11.464,3.985,3.985,0,0,1-1.807-3.3V225.945c-4.663-.7-9.229-1.535-13.349-2.39A24.291,24.291,0,0,1,201.83,208.38Z" transform="translate(-201.83 -208.38)"/>
                    <path id="Path_53" data-name="Path 53" class="cls-14" d="M222.182,229.7a65.176,65.176,0,0,0,10.434,1.846v-6.257c-4.663-.7-9.229-1.535-13.349-2.39A24.275,24.275,0,0,1,202.13,209.07a24.641,24.641,0,0,0,6.257,12.921A29.868,29.868,0,0,0,222.182,229.7Z" transform="translate(-201.547 -207.729)"/>
                  </g>
                  <path id="Path_54" data-name="Path 54" class="cls-10" d="M237.924,196.108H233.94a29.273,29.273,0,0,0-27.61-2.817v4.2l1.108.583c.8,2.6.758,5.557,1.03,8.258s1.03,5.557,3.051,7.325c2.2,1.924,5.324,2.1,8.219,2.137a15.053,15.053,0,0,0,6.839-.991,10.984,10.984,0,0,0,5.207-6.257c.971-2.623.816-4.158,2.04-7.306A2.355,2.355,0,0,1,236,199.761a2.155,2.155,0,0,1,2.04,1.477c1.146,3.167.991,4.683,1.9,7.306a10.844,10.844,0,0,0,4.877,6.257c1.962,1.01,4.216,1.01,6.393.991,2.7-.039,5.635-.214,7.694-2.137,1.885-1.768,2.6-4.6,2.856-7.325.253-2.7.214-5.674.952-8.258l1.03-.583v-4.2A25.876,25.876,0,0,0,237.924,196.108Zm-6,2.157-.155,1.5a34.6,34.6,0,0,1-2.021,7.947,9.007,9.007,0,0,1-4.119,5.032,11.492,11.492,0,0,1-4.916.8h-.894c-2.526-.039-5.13-.194-6.781-1.632-1.282-1.127-2.06-3.051-2.332-5.868-.078-.7-.117-1.418-.175-2.157-.136-2-.019-6.412.155-9.6a25.969,25.969,0,0,1,6.995-.972,26.706,26.706,0,0,1,14.067,4.1C231.978,197.565,231.92,198.265,231.92,198.265Zm27.921,5.615c-.039.719-.1,1.457-.155,2.157-.272,2.837-.991,4.741-2.2,5.868-1.554,1.438-3.983,1.593-6.354,1.632H250.3a10.083,10.083,0,0,1-4.586-.8c-2.234-1.127-3.381-3.633-3.867-5.032a37.19,37.19,0,0,1-1.885-7.947l-.155-1.5s-.058-.7.155-.855a23.864,23.864,0,0,1,13.174-4.1,22.843,22.843,0,0,1,6.548.972C259.86,197.468,259.957,201.879,259.841,203.88Z" transform="translate(-174.95 -143.521)"/>
                  <path id="Path_55" data-name="Path 55" class="cls-10" d="M217.241,192.21l-22.481,8.083a9.714,9.714,0,0,1,4.391,2.06c.233.214,18.07-5.946,18.07-5.946v-4.2Z" transform="translate(-185.861 -142.44)"/>
                  <g id="Group_17" data-name="Group 17" transform="translate(42.373 40.883)">
                    <path id="Path_56" data-name="Path 56" class="cls-17" d="M221.55,195.73l11.328,13.718-10.4,3.692Z" transform="translate(-202.97 -180.004)"/>
                    <path id="Path_57" data-name="Path 57" class="cls-21" d="M213.3,198.109a3.109,3.109,0,1,0,3.128-3.089A3.093,3.093,0,0,0,213.3,198.109Z" transform="translate(-210.75 -180.673)"/>
                    <path id="Path_58" data-name="Path 58" class="cls-21" d="M226.76,197.68a3.109,3.109,0,1,0,3.128-3.089A3.093,3.093,0,0,0,226.76,197.68Z" transform="translate(-198.057 -181.079)"/>
                    <path id="Path_59" data-name="Path 59" class="cls-21" d="M225.92,190.4c2.779.311,5.557.622,8.336.952a4.445,4.445,0,0,0-3.5-3.672C229.009,187.352,226.736,188.848,225.92,190.4Z" transform="translate(-198.849 -187.636)"/>
                    <path id="Path_60" data-name="Path 60" class="cls-21" d="M219.706,189.233c-2.545,1.166-5.091,2.312-7.636,3.478a4.416,4.416,0,0,1,2.2-4.566C215.82,187.271,218.443,188.009,219.706,189.233Z" transform="translate(-211.988 -187.516)"/>
                    <g id="Group_16" data-name="Group 16" transform="translate(8.232 38.907)">
                      <path id="Path_61" data-name="Path 61" class="cls-17" d="M216.294,207.66c3.07,1.03,6.159,2.06,9.229,3.089a5.721,5.721,0,0,1-6.334,2.72C216.915,212.809,215.944,209.992,216.294,207.66Z" transform="translate(-216.224 -207.66)"/>
                      <path id="Path_62" data-name="Path 62" class="cls-11" d="M216.294,207.66c3.07,1.03,6.159,2.06,9.229,3.089a5.721,5.721,0,0,1-6.334,2.72C216.915,212.809,215.944,209.992,216.294,207.66Z" transform="translate(-216.224 -207.66)"/>
                      <path id="Path_63" data-name="Path 63" class="cls-17" d="M222.215,212.641a5.46,5.46,0,0,1-3.051.117,4.671,4.671,0,0,1-2.915-4.275,5.479,5.479,0,0,1,3.575.738A5.556,5.556,0,0,1,222.215,212.641Z" transform="translate(-216.2 -206.928)"/>
                    </g>
                  </g>
                </g>
                <g id="Group_19" data-name="Group 19" transform="translate(105.77 97.796)">
                  <path id="Path_64" data-name="Path 64" class="cls-17" d="M235.853,230.838l-7.869,3.614a3.123,3.123,0,0,0-1.5,4.275h0a3.154,3.154,0,0,0,3.381,1.69l19.372-3.478-5.907-7.52Z" transform="translate(-217.239 -205.146)"/>
                  <path id="Path_65" data-name="Path 65" class="cls-8" d="M257.525,249.556l24.482,57.669a16.968,16.968,0,0,0,21.7,9.21h0a16.973,16.973,0,0,0,7.17-26.464l-40.007-49.858a23.581,23.581,0,0,0-4.8-4.527l-12.2-8.608a25.852,25.852,0,0,0-11.561-4.527h0l-5.946-4.372a5.955,5.955,0,0,0-5.654-.758l-9.152,3.517h0a5.969,5.969,0,0,0,6.878,3.323l3.653-.894,4.275,3.148-5.557,7.714a4.838,4.838,0,0,0,.972,6.645l10.492,8.064a3.76,3.76,0,0,0,3.381.622h0a3.766,3.766,0,0,0,2.584-4.352l-.019-.058A13.244,13.244,0,0,0,257.525,249.556Z" transform="translate(-221.56 -216.927)"/>
                  <path id="Path_66" data-name="Path 66" class="cls-17" d="M230.886,223.338a14.343,14.343,0,0,1,3.828-3.148l-7.364.544Z" transform="translate(-216.1 -213.85)"/>
                </g>
                <path id="Path_67" data-name="Path 67" class="cls-8" d="M212.641,268.837l-8.336,28.621,51.024,36.237,17.157,7.228a26.966,26.966,0,0,1,11.367,9.035l13.99,19.352c1.574,3.245-5.732,8.53-9.229,9.424h0a12.593,12.593,0,0,1-11.6-2.9l-10.8-9.89-2.973-1.049a45.351,45.351,0,0,1-21.7-16.283h0L181.727,325.4a22.888,22.888,0,0,1-13.815-27.28l9.929-36.9Z" transform="translate(-167.124 -77.363)"/>
                <path id="Path_68" data-name="Path 68" class="cls-18" d="M209.761,305.99l14.165-42.338s.486-38.744-15.972-37.559-24.793,10.725-37.442,68.181l-.272,1.244A68.252,68.252,0,0,0,209.761,305.99Z" transform="translate(-164.186 -110.513)"/>
                <path id="Path_69" data-name="Path 69" class="cls-19" d="M209.761,305.99l14.165-42.338s.486-38.744-15.972-37.559-24.793,10.725-37.442,68.181l-.272,1.244A68.252,68.252,0,0,0,209.761,305.99Z" transform="translate(-164.186 -110.513)"/>
              </g>
            </g>
          </g>
        </g>
      </g>
    </g>
  </g>
</svg>
